<svg width="25" height="25" viewBox="0 0 25 25" fill="none" xmlns="http://www.w3.org/2000/svg">
<path d="M24.2123 11.1926L21.8484 6.77698C21.7088 6.51527 21.4694 6.31753 21.1818 6.22634C20.8943 6.13516 20.5815 6.15783 20.3109 6.28948L17.995 7.42385H16.2461L12.9981 5.98948C12.7478 5.87769 12.4646 5.85772 12.2005 5.93323L7.37652 7.30198L5.08947 6.18635C4.81885 6.05471 4.50606 6.03203 4.21848 6.12322C3.93089 6.2144 3.69153 6.41215 3.55195 6.67385L1.18803 11.0895C1.11668 11.2226 1.07314 11.3682 1.05994 11.5179C1.04675 11.6676 1.06415 11.8183 1.11115 11.9614C1.21116 12.2464 1.42156 12.482 1.69733 12.6176L4.04204 13.7614L9.25997 17.7457C9.38967 17.8402 9.53633 17.9101 9.6924 17.952L15.2563 19.302C15.3468 19.3276 15.4407 19.3402 15.535 19.3395C15.6868 19.3414 15.8374 19.3133 15.9778 19.257C16.1182 19.2006 16.2454 19.117 16.3518 19.0114L19.888 15.5614L19.9073 15.5426L21.3967 13.8457L23.703 12.7207C23.8408 12.6529 23.9635 12.5592 24.0641 12.4449C24.1647 12.3307 24.2412 12.1982 24.2892 12.0551C24.3365 11.9137 24.354 11.7644 24.3408 11.6162C24.3276 11.468 24.2839 11.3239 24.2123 11.1926ZM19.5613 14.7926L15.6214 11.9895C15.5539 11.9421 15.4724 11.9175 15.3892 11.9191C15.306 11.9208 15.2257 11.9488 15.1602 11.9989L13.9302 12.8989C13.4632 13.2368 12.8972 13.4192 12.3158 13.4192C11.7344 13.4192 11.1684 13.2368 10.7014 12.8989L10.1825 12.5145C10.137 12.4839 10.0994 12.4435 10.0727 12.3963C10.046 12.3491 10.0309 12.2965 10.0287 12.2426C10.0226 12.1887 10.0299 12.1341 10.0499 12.0835C10.07 12.0329 10.1023 11.9878 10.144 11.952L13.9013 8.27698C13.9744 8.21058 14.0706 8.17373 14.1704 8.17385H17.8508L20.6952 13.4895L19.5613 14.7926ZM1.85108 11.727C1.8325 11.6801 1.82459 11.6298 1.82791 11.5796C1.83123 11.5294 1.84569 11.4805 1.8703 11.4364L4.23423 7.02073C4.2669 6.95935 4.31675 6.90827 4.37798 6.87343C4.43921 6.83858 4.50932 6.82139 4.58017 6.82385C4.63708 6.82181 4.69351 6.83477 4.74353 6.86135L6.79995 7.8551L4.08047 12.9364L2.04327 11.9426C1.99664 11.9231 1.95513 11.8936 1.92185 11.8563C1.88857 11.8189 1.86437 11.7747 1.85108 11.727ZM15.8136 18.477C15.7661 18.5221 15.708 18.5551 15.6443 18.5731C15.5806 18.5911 15.5133 18.5935 15.4485 18.5801L9.87498 17.2207C9.82359 17.2067 9.7749 17.1845 9.73084 17.1551L4.73392 13.3395L7.57832 8.02385L12.4119 6.6551C12.5008 6.62855 12.5967 6.63524 12.6809 6.67385L14.3818 7.42385H14.1704C14.0188 7.42297 13.8685 7.45153 13.7282 7.50786C13.588 7.5642 13.4607 7.64718 13.3536 7.75198L9.5963 11.4176C9.47932 11.5317 9.38885 11.669 9.33105 11.8202C9.27325 11.9714 9.24947 12.1329 9.26132 12.2939C9.27317 12.4548 9.32037 12.6114 9.39973 12.753C9.47908 12.8946 9.58873 13.0179 9.72123 13.1145L10.2401 13.4989C10.8408 13.9327 11.5684 14.1669 12.3158 14.1669C13.0632 14.1669 13.7908 13.9327 14.3914 13.4989L15.3908 12.7582L19.0328 15.3364L15.8136 18.477ZM23.5492 11.8301C23.5342 11.877 23.5094 11.9204 23.4763 11.9575C23.4432 11.9946 23.4026 12.0247 23.3571 12.0457L21.3199 13.0395L18.6004 7.95823L20.6568 6.96448C20.7463 6.92132 20.8495 6.91383 20.9445 6.94357C21.0396 6.97332 21.119 7.03797 21.1661 7.12385L23.53 11.5395C23.5546 11.5837 23.5691 11.6325 23.5724 11.6827C23.5757 11.7329 23.5678 11.7832 23.5492 11.8301ZM11.5374 21.0082C11.5163 21.0901 11.4682 21.1629 11.4005 21.2154C11.3327 21.268 11.2492 21.2973 11.1626 21.2989L11.0666 21.2801L8.17411 20.577C7.99639 20.5341 7.83169 20.4505 7.69363 20.3332L5.5315 18.4957C5.4863 18.4661 5.44806 18.4275 5.41931 18.3823C5.39057 18.3372 5.37198 18.2867 5.36477 18.234C5.35757 18.1814 5.36192 18.1278 5.37752 18.0769C5.39313 18.026 5.41964 17.9789 5.4553 17.9388C5.49096 17.8987 5.53496 17.8664 5.58438 17.8441C5.6338 17.8218 5.68751 17.8099 5.74196 17.8094C5.79641 17.8089 5.85035 17.8197 5.90022 17.841C5.95008 17.8623 5.99472 17.8938 6.03119 17.9332L8.20293 19.7707C8.24666 19.8083 8.29964 19.8341 8.35669 19.8457L11.2587 20.5582C11.3564 20.5826 11.4403 20.6434 11.4924 20.7276C11.5446 20.8118 11.5607 20.9126 11.5374 21.0082Z" fill="white"/>
</svg>
