<svg width="64" height="64" viewBox="0 0 64 64" fill="none" xmlns="http://www.w3.org/2000/svg">
<g clip-path="url(#clip0_350_1236)">
<path fill-rule="evenodd" clip-rule="evenodd" d="M22.44 5.90785e-08C15.9147 2.63349e-08 10.6667 5.47467 10.6667 12.1813C10.6667 16.2587 12.608 19.88 15.592 22.0907C14.0541 23.2429 12.8075 24.7394 11.9522 26.4602C11.0969 28.1811 10.6566 30.0784 10.6667 32C10.6667 36.08 12.608 39.6987 15.592 41.9093C14.0541 43.0616 12.8075 44.5581 11.9522 46.2789C11.0969 47.9997 10.6566 49.897 10.6667 51.8187C10.6667 58.5253 15.9147 64 22.44 64C28.9627 64 34.2133 58.5253 34.2133 51.8187L34.2133 41.52C36.2756 43.2394 38.875 44.182 41.56 44.184C48.0853 44.1813 53.3333 38.7067 53.3333 32C53.344 30.0782 52.9041 28.1807 52.0487 26.4598C51.1933 24.7389 49.9464 23.2425 48.408 22.0907C49.9459 20.9384 51.1925 19.4419 52.0478 17.7211C52.9032 16.0003 53.3434 14.103 53.3333 12.1813C53.3333 5.47467 48.0853 1.87765e-07 41.56 1.55021e-07L22.44 5.90785e-08ZM15.0907 12.1813C15.0907 7.93867 18.4027 4.54133 22.44 4.54133L29.7867 4.54133L29.7867 19.8213L22.44 19.8213C18.4027 19.8213 15.0907 16.4213 15.0907 12.1813ZM41.56 19.8187L34.2133 19.8187L34.2133 4.53867L41.56 4.53867C45.6 4.53867 48.9093 7.93867 48.9093 12.1813C48.9093 16.4213 45.6 19.8187 41.56 19.8187ZM15.0933 32C15.0933 27.76 18.4053 24.36 22.4427 24.36L29.7893 24.36L29.7893 39.64L22.44 39.64C18.4 39.64 15.0907 36.24 15.0907 32L15.0933 32ZM34.2133 32C34.2133 27.76 37.5253 24.36 41.5627 24.36C45.6027 24.36 48.912 27.7573 48.912 32C48.912 36.24 45.6027 39.64 41.5627 39.64C37.5253 39.64 34.216 36.2427 34.216 32L34.2133 32ZM15.0933 51.8187C15.0933 47.5787 18.4053 44.1813 22.4427 44.1813L29.7893 44.1813L29.7893 51.8187C29.7893 56.0613 26.4827 59.4587 22.4427 59.4587C18.4053 59.4587 15.0933 56.0613 15.0933 51.8187Z" fill="#888888"/>
</g>
<defs>
<clipPath id="clip0_350_1236">
<rect width="64" height="64" fill="white"/>
</clipPath>
</defs>
</svg>
