<svg width="32" height="32" viewBox="0 0 32 32" fill="none" xmlns="http://www.w3.org/2000/svg">
<g clip-path="url(#clip0_337_34)">
<path fill-rule="evenodd" clip-rule="evenodd" d="M11.22 1.52883e-05C7.95734 1.5272e-05 5.33334 2.73735 5.33334 6.09068C5.33334 8.12935 6.304 9.94002 7.796 11.0453C7.02704 11.6215 6.40375 12.3697 5.97609 13.2301C5.54843 14.0906 5.3283 15.0392 5.33334 16C5.33334 18.04 6.304 19.8493 7.796 20.9547C7.02704 21.5308 6.40375 22.2791 5.97609 23.1395C5.54843 23.9999 5.3283 24.9485 5.33334 25.9093C5.33334 29.2627 7.95734 32 11.22 32C14.4813 32 17.1067 29.2627 17.1067 25.9093L17.1067 20.76C18.1378 21.6197 19.4375 22.091 20.78 22.092C24.0427 22.0907 26.6667 19.3533 26.6667 16C26.672 15.0391 26.452 14.0904 26.0243 13.2299C25.5967 12.3695 24.9732 11.6212 24.204 11.0453C24.973 10.4692 25.5963 9.72098 26.0239 8.86056C26.4516 8.00015 26.6717 7.05151 26.6667 6.09068C26.6667 2.73735 24.0427 1.53527e-05 20.78 1.53363e-05L11.22 1.52883e-05ZM7.54534 6.09068C7.54534 3.96935 9.20134 2.27068 11.22 2.27068L14.8933 2.27068L14.8933 9.91068L11.22 9.91068C9.20134 9.91068 7.54534 8.21068 7.54534 6.09068ZM20.78 9.90935L17.1067 9.90935L17.1067 2.26935L20.78 2.26935C22.8 2.26935 24.4547 3.96935 24.4547 6.09068C24.4547 8.21068 22.8 9.90935 20.78 9.90935ZM7.54667 16C7.54667 13.88 9.20267 12.18 11.2213 12.18L14.8947 12.18L14.8947 19.82L11.22 19.82C9.2 19.82 7.54534 18.12 7.54534 16L7.54667 16ZM17.1067 16C17.1067 13.88 18.7627 12.18 20.7813 12.18C22.8013 12.18 24.456 13.8787 24.456 16C24.456 18.12 22.8013 19.82 20.7813 19.82C18.7627 19.82 17.108 18.1213 17.108 16L17.1067 16ZM7.54667 25.9093C7.54667 23.7893 9.20267 22.0907 11.2213 22.0907L14.8947 22.0907L14.8947 25.9093C14.8947 28.0307 13.2413 29.7294 11.2213 29.7294C9.20267 29.7294 7.54667 28.0307 7.54667 25.9093Z" fill="white"/>
</g>
<defs>
<clipPath id="clip0_337_34">
<rect width="32" height="32" fill="white"/>
</clipPath>
</defs>
</svg>
