<svg width="64" height="64" viewBox="0 0 64 64" fill="none" xmlns="http://www.w3.org/2000/svg">
<g clip-path="url(#clip0_350_1242)">
<path fill-rule="evenodd" clip-rule="evenodd" d="M21.5061 13.501L28.1729 13.501L37.7595 45.6186L31.9687 45.6186L29.5842 36.47L20.241 36.47L17.8078 45.6188L12.6981 45.6188L21.5063 15.0096L21.5063 13.501L21.5061 13.501ZM28.2703 31.7498L24.9611 18.1725L21.5548 31.7495L28.2703 31.7495L28.2703 31.7498ZM47.6869 21.7498L42.4313 21.7498L42.4313 45.6188L47.6869 45.6188L47.6869 21.75L47.6869 21.7498ZM44.9912 12.4764C43.2886 12.4764 41.9084 13.8407 41.9084 15.5239C41.9084 17.207 43.2886 18.5715 44.9912 18.5715C46.6939 18.5715 48.0742 17.2071 48.0742 15.524C48.0742 13.8409 46.694 12.4764 44.9912 12.4764ZM64 64L-3.21147e-07 64L0 0L64 3.21147e-07L64 64Z" fill="#888888"/>
</g>
<defs>
<clipPath id="clip0_350_1242">
<rect width="64" height="64" rx="5" fill="white"/>
</clipPath>
</defs>
</svg>
