<svg width="32" height="32" viewBox="0 0 32 32" fill="none" xmlns="http://www.w3.org/2000/svg">
<g clip-path="url(#clip0_337_42)">
<path fill-rule="evenodd" clip-rule="evenodd" d="M10.7531 6.7505L14.0864 6.7505L18.8797 22.8093L15.9844 22.8093L14.7921 18.235L10.1205 18.235L8.90388 22.8094L6.34906 22.8094L10.7531 7.50481L10.7531 6.7505L10.7531 6.7505ZM14.1351 15.8749L12.4806 9.08625L10.7774 15.8748L14.1351 15.8748L14.1351 15.8749ZM23.8434 10.8749L21.2156 10.8749L21.2156 22.8094L23.8434 22.8094L23.8434 10.875L23.8434 10.8749ZM22.4956 6.23819C21.6443 6.23819 20.9542 6.92037 20.9542 7.76194C20.9542 8.6035 21.6443 9.28575 22.4956 9.28575C23.3469 9.28575 24.0371 8.60356 24.0371 7.762C24.0371 6.92044 23.347 6.23819 22.4956 6.23819ZM32 32L-1.60574e-07 32L0 0L32 1.60574e-07L32 32Z" fill="white"/>
</g>
<defs>
<clipPath id="clip0_337_42">
<rect width="32" height="32" rx="5" fill="white"/>
</clipPath>
</defs>
</svg>
