<svg width="533" height="581" viewBox="0 0 533 581" fill="none" xmlns="http://www.w3.org/2000/svg">
<g clip-path="url(#clip0_555_158)">
<path fill-rule="evenodd" clip-rule="evenodd" d="M252.868 160.091L242.364 166.155C238.47 168.403 233.615 167.483 230.786 164.195C215.538 174.807 202.015 187.753 190.726 202.585C176.392 221.42 165.948 242.918 160.002 265.828C154.056 288.738 152.728 312.602 156.094 336.03C158.735 354.412 164.226 372.238 172.34 388.874C176.665 386.703 181.986 388.258 184.437 392.503L188.996 400.4C191.538 404.804 190.03 410.435 185.626 412.977L175.122 419.042C170.718 421.584 165.087 420.076 162.545 415.672L157.985 407.775C155.443 403.371 156.952 397.74 161.356 395.197L162.977 394.261C143.829 353.78 139.556 307.646 151.236 264.075C159.553 233.052 175.522 204.95 197.324 182.141L83.7515 247.712C84.2324 248.902 84.5638 250.154 84.7332 251.44C85.1274 254.435 84.6249 257.479 83.289 260.188C81.9531 262.897 79.8438 265.149 77.228 266.659C75.4927 267.668 73.575 268.324 71.5854 268.588C69.5958 268.853 67.5736 268.722 65.6348 268.203C63.6961 267.683 61.8791 266.785 60.2885 265.561C58.6979 264.337 57.3649 262.811 56.3664 261.069C54.8561 258.454 54.1555 255.449 54.353 252.435C54.5506 249.421 55.6375 246.533 57.4763 244.137C59.315 241.74 61.8232 239.943 64.6833 238.972C67.5435 238.001 70.6272 237.9 73.5447 238.682C76.4623 239.464 79.0826 241.093 81.0741 243.364C81.265 243.582 81.4492 243.804 81.6268 244.032L210.467 169.646C215.587 165.225 220.956 161.067 226.559 157.194L225.227 154.888C222.685 150.484 224.194 144.853 228.598 142.31L239.101 136.246C243.505 133.703 249.136 135.212 251.679 139.616L253.014 141.928C259.144 139.028 265.403 136.47 271.764 134.256L400.641 59.849C397.822 52.8986 400.486 44.7576 407.166 40.901C414.47 36.6839 423.81 39.1865 428.027 46.4909C432.245 53.7952 429.742 63.1352 422.438 67.3524C415.758 71.2091 407.375 69.4457 402.765 63.5292L289.156 129.121C319.81 121.645 352.133 121.866 383.157 130.175C426.731 141.845 464.548 168.613 490.031 205.436L491.691 204.478C496.095 201.935 501.726 203.444 504.269 207.848L508.828 215.745C511.37 220.149 509.862 225.78 505.458 228.323L494.954 234.387C490.55 236.929 484.919 235.421 482.376 231.017L477.817 223.12C475.381 218.9 476.664 213.554 480.649 210.878C470.299 195.531 457.605 181.862 443.005 170.382C424.399 155.752 403.068 144.971 380.254 138.665C357.44 132.359 333.6 130.655 310.122 133.652C291.676 136.007 273.744 141.226 256.963 149.094C258.39 153.186 256.759 157.844 252.868 160.091Z" fill="url(#paint0_linear_555_158)" fill-opacity="0.3"/>
</g>
<path fill-rule="evenodd" clip-rule="evenodd" d="M339.134 321.622L250.54 186.568C263.457 249.801 268.204 314.432 264.665 378.874C303.318 382.354 330.542 399.879 349.927 427.144L396.667 396.432L443.36 365.812C426.051 337.066 420.886 305.084 433.089 268.388C372.571 245.956 315.182 215.849 262.329 178.805L350.918 313.893C354.343 313.495 357.802 314.272 360.727 316.098C363.653 317.923 365.871 320.689 367.018 323.941C368.165 327.193 368.173 330.738 367.041 333.995C365.909 337.252 363.703 340.028 360.786 341.867C357.936 343.727 354.546 344.58 351.155 344.29C347.764 344 344.567 342.583 342.075 340.265C339.583 337.948 337.938 334.863 337.402 331.502C336.867 328.141 337.471 324.697 339.12 321.72L339.134 321.622ZM448.088 372.943L352.942 435.332L371.419 463.511L466.566 401.123L448.088 372.943ZM470.854 407.436L375.695 469.903L426.866 547.613C426.9 547.743 426.961 547.865 427.045 547.97C429.965 552.413 453.602 542.068 479.887 524.824C506.171 507.581 525.081 490.006 522.162 485.563C522.103 485.289 521.876 485.256 521.876 485.256L470.854 407.436Z" fill="url(#paint1_linear_555_158)" fill-opacity="0.3"/>
<defs>
<linearGradient id="paint0_linear_555_158" x1="233.831" y1="139.289" x2="340.29" y2="323.682" gradientUnits="userSpaceOnUse">
<stop stop-color="#888888"/>
<stop offset="1" stop-color="#888888" stop-opacity="0"/>
</linearGradient>
<linearGradient id="paint1_linear_555_158" x1="449.558" y1="536.109" x2="250.917" y2="186.337" gradientUnits="userSpaceOnUse">
<stop stop-color="#888888" stop-opacity="0"/>
<stop offset="1" stop-color="#888888"/>
</linearGradient>
<clipPath id="clip0_555_158">
<rect width="429.157" height="212.919" fill="white" transform="translate(48 246.579) rotate(-30)"/>
</clipPath>
</defs>
</svg>
