<svg width="64" height="64" viewBox="0 0 64 64" fill="none" xmlns="http://www.w3.org/2000/svg">
<g clip-path="url(#clip0_350_1240)">
<path fill-rule="evenodd" clip-rule="evenodd" d="M64 64L-3.21147e-07 64L0 0L64 3.21147e-07L64 64ZM50.8013 27.1268L50.8013 22.163C49.9837 21.799 45.3024 20.4599 41.604 21.8711C36.2765 23.9039 36.4679 30.0276 38.4895 32.431C41.1089 35.545 47.6247 36.706 46.5585 39.7625C46.0064 41.3452 43.4287 41.6208 41.1562 41.0894C39.04 40.5946 37.2 39.3411 37.2 39.3411L37.2 44.5967C37.2 44.5967 39.0187 45.6108 41.251 45.852C44.1126 46.1611 47.6996 45.5774 49.4966 43.9801C52.6954 41.1367 53.1866 34.838 47.1247 31.9131C42.0804 29.4794 42.1634 28.7848 42.1987 27.5364C42.2463 25.8644 45.7568 24.8351 50.8013 27.1268ZM23.5987 13.1969C27.7959 13.3429 33.964 15.2773 33.964 23.5256C33.964 31.774 26.4172 34.4806 19.5311 33.8909L19.5311 45.57L14.4012 45.57L14.4012 13.3062C14.4012 13.3062 19.4014 13.0509 23.5986 13.1969L23.5987 13.1969ZM24.9309 28.7813C27.1429 27.9741 28.5806 26.239 28.5806 23.5438C28.5806 20.6861 27.1175 18.751 24.8797 18.2044C22.4565 17.6122 19.5311 17.9613 19.5311 17.9613L19.5311 29.2167C19.5311 29.2167 23.5805 29.274 24.9309 28.7813Z" fill="#888888"/>
</g>
<defs>
<clipPath id="clip0_350_1240">
<rect width="64" height="64" rx="5" fill="white"/>
</clipPath>
</defs>
</svg>
