<svg width="32" height="32" viewBox="0 0 32 32" fill="none" xmlns="http://www.w3.org/2000/svg">
<g clip-path="url(#clip0_337_38)">
<path fill-rule="evenodd" clip-rule="evenodd" d="M32 32L-1.60574e-07 32L0 1.52588e-05L32 1.54194e-05L32 32ZM25.4006 13.5634L25.4006 11.0815C24.9919 10.8995 22.6512 10.23 20.802 10.9356C18.1383 11.952 18.2339 15.0138 19.2447 16.2155C20.5544 17.7725 23.8124 18.353 23.2792 19.8813C23.0032 20.6726 21.7144 20.8104 20.5781 20.5447C19.52 20.2973 18.6 19.6706 18.6 19.6706L18.6 22.2984C18.6 22.2984 19.5094 22.8054 20.6255 22.926C22.0563 23.0806 23.8498 22.7887 24.7483 21.9901C26.3477 20.5684 26.5933 17.419 23.5624 15.9566C21.0402 14.7397 21.0817 14.3924 21.0994 13.7682C21.1231 12.9322 22.8784 12.4176 25.4006 13.5634ZM11.7994 6.59845C13.8979 6.67145 16.982 7.63864 16.982 11.7628C16.982 15.887 13.2086 17.2403 9.76556 16.9455L9.76556 22.785L7.20062 22.785L7.20062 6.65314C7.20062 6.65314 9.70069 6.52545 11.7993 6.59845L11.7994 6.59845ZM12.4654 14.3906C13.5714 13.9871 14.2903 13.1195 14.2903 11.7719C14.2903 10.3431 13.5588 9.37552 12.4399 9.1022C11.2282 8.80614 9.76556 8.98064 9.76556 8.98064L9.76556 14.6084C9.76556 14.6084 11.7903 14.637 12.4654 14.3906Z" fill="white"/>
</g>
<defs>
<clipPath id="clip0_337_38">
<rect y="1.52588e-05" width="32" height="32" rx="5" fill="white"/>
</clipPath>
</defs>
</svg>
