<svg width="434" height="520" viewBox="0 0 434 520" fill="none" xmlns="http://www.w3.org/2000/svg">
<path d="M-12.0789 325.982L-13.9849 328C-12.8927 329.032 -11.1783 329.007 -10.116 327.945L-12.0789 325.982ZM-13 325.112L-14.9629 323.149C-15.4932 323.68 -15.7863 324.402 -15.7756 325.152C-15.7649 325.902 -15.4512 326.615 -14.906 327.13L-13 325.112ZM177.982 135.921L179.945 137.884C181.007 136.822 181.032 135.107 180 134.015L177.982 135.921ZM177.112 135L179.13 133.094C178.615 132.549 177.902 132.235 177.152 132.224C176.402 132.214 175.68 132.507 175.149 133.037L177.112 135ZM-7.47311 353.053L-9.43572 351.09C-9.9564 351.611 -10.2489 352.317 -10.249 353.053C-10.249 353.789 -9.95657 354.495 -9.43594 355.016L-7.47311 353.053ZM-6.55197 353.974L-8.51481 355.937C-7.43076 357.021 -5.67317 357.021 -4.58913 355.937L-6.55197 353.974ZM205.105 140.527L207.123 138.621C206.608 138.076 205.894 137.762 205.144 137.751C204.395 137.74 203.672 138.033 203.142 138.564L205.105 140.527ZM205.975 141.448L207.937 143.411C209 142.348 209.024 140.634 207.993 139.542L205.975 141.448ZM4.60395 376.338L2.6411 378.301C3.16167 378.821 3.86773 379.114 4.60394 379.114C5.34016 379.114 6.04622 378.821 6.5668 378.301L4.60395 376.338ZM3.68281 375.417L1.72019 373.453C1.19951 373.974 0.906972 374.68 0.906928 375.416C0.906885 376.153 1.19934 376.859 1.71996 377.379L3.68281 375.417ZM228.44 152.502L230.403 154.465C230.933 153.934 231.226 153.212 231.216 152.462C231.205 151.712 230.891 150.999 230.346 150.484L228.44 152.502ZM227.519 151.632L229.425 149.614C228.333 148.582 226.619 148.607 225.556 149.669L227.519 151.632ZM14.7876 397.882L12.8247 395.919C11.7625 396.981 11.738 398.696 12.7694 399.788L14.7876 397.882ZM15.6575 398.803L13.6394 400.709C14.1543 401.254 14.868 401.568 15.6179 401.579C16.3678 401.589 17.0901 401.296 17.6204 400.766L15.6575 398.803ZM251.008 161.662L252.914 159.644C251.822 158.612 250.107 158.637 249.045 159.699L251.008 161.662ZM251.929 162.532L253.892 164.494C254.422 163.964 254.715 163.242 254.705 162.492C254.694 161.742 254.38 161.028 253.835 160.514L251.929 162.532ZM24.2547 423.725L22.2366 425.631C22.7516 426.176 23.4652 426.49 24.2151 426.5C24.9649 426.511 25.6872 426.218 26.2175 425.688L24.2547 423.725ZM23.3847 422.804L21.4219 420.841C20.3597 421.903 20.3352 423.618 21.3666 424.71L23.3847 422.804ZM270.096 177.884L272.059 179.847C273.121 178.784 273.145 177.07 272.114 175.978L270.096 177.884ZM269.226 176.963L271.244 175.057C270.729 174.511 270.015 174.198 269.265 174.187C268.516 174.176 267.793 174.47 267.263 175L269.226 176.963ZM40.117 439.887L38.1566 437.922C37.0712 439.005 37.069 440.762 38.1517 441.848L40.117 439.887ZM286.262 194.343L288.228 192.382C287.708 191.861 287.002 191.568 286.266 191.567C285.53 191.566 284.823 191.857 284.302 192.377L286.262 194.343ZM41.0205 440.793L39.0553 442.753C39.5752 443.275 40.2809 443.568 41.0171 443.569C41.7534 443.57 42.4598 443.278 42.981 442.758L41.0205 440.793ZM287.166 195.248L289.126 197.214C290.212 196.131 290.214 194.373 289.131 193.288L287.166 195.248ZM302.445 210.565L304.401 208.595C303.878 208.076 303.171 207.786 302.435 207.789C301.699 207.792 300.994 208.087 300.475 208.609L302.445 210.565ZM57.5025 457.31L55.5325 455.354C54.4525 456.442 54.4589 458.2 55.5469 459.28L57.5025 457.31ZM303.353 211.466L305.323 213.422C306.403 212.334 306.397 210.576 305.309 209.496L303.353 211.466ZM58.4105 458.211L56.4548 460.181C56.9773 460.7 57.6844 460.99 58.4207 460.987C59.1569 460.984 59.8619 460.689 60.3805 460.167L58.4105 458.211ZM81.8259 464.921L79.8631 462.958C78.8009 464.02 78.7764 465.735 79.8078 466.827L81.8259 464.921ZM82.6959 465.842L80.6778 467.748C81.1927 468.293 81.9063 468.607 82.6561 468.617C83.4059 468.628 84.1282 468.335 84.6585 467.805L82.6959 465.842ZM318.046 228.7L320.009 226.738C318.925 225.654 317.167 225.654 316.083 226.738L318.046 228.7ZM318.967 229.622L320.93 231.585C321.451 231.064 321.743 230.358 321.743 229.622C321.743 228.885 321.451 228.179 320.93 227.659L318.967 229.622ZM105.161 476.895L103.255 478.913C104.347 479.945 106.062 479.92 107.124 478.858L105.161 476.895ZM104.24 476.025L102.277 474.062C101.747 474.593 101.454 475.315 101.464 476.065C101.475 476.815 101.789 477.528 102.334 478.043L104.24 476.025ZM328.997 253.059L330.96 255.022C331.49 254.492 331.784 253.769 331.773 253.02C331.762 252.27 331.448 251.556 330.903 251.041L328.997 253.059ZM328.076 252.189L329.982 250.171C328.89 249.14 327.175 249.164 326.113 250.226L328.076 252.189ZM132.26 481.526L130.297 479.563C129.213 480.647 129.213 482.405 130.297 483.489L132.26 481.526ZM333.561 280.225L335.524 278.263C334.44 277.179 332.682 277.179 331.598 278.263L333.561 280.225ZM133.165 482.431L131.202 484.394C131.723 484.914 132.429 485.207 133.165 485.207C133.901 485.207 134.607 484.914 135.128 484.394L133.165 482.431ZM334.466 281.13L336.428 283.093C336.949 282.572 337.242 281.866 337.242 281.13C337.242 280.394 336.949 279.688 336.428 279.167L334.466 281.13ZM161.095 488L159.132 489.963C160.216 491.047 161.973 491.047 163.057 489.963L161.095 488ZM160.225 487.13L158.262 485.167C157.178 486.251 157.178 488.009 158.262 489.093L160.225 487.13ZM340 309.146L341.962 311.109C343.025 310.047 343.049 308.332 342.018 307.24L340 309.146ZM339.13 308.225L341.148 306.319C340.633 305.773 339.919 305.46 339.169 305.449C338.419 305.438 337.697 305.732 337.167 306.262L339.13 308.225ZM193.744 487.079L191.782 485.116C191.261 485.636 190.968 486.343 190.968 487.079C190.968 487.815 191.261 488.521 191.781 489.042L193.744 487.079ZM194.665 488L192.702 489.963C193.223 490.484 193.929 490.776 194.665 490.776C195.401 490.776 196.107 490.484 196.628 489.963L194.665 488ZM339.079 341.795L340.985 339.777C339.893 338.746 338.179 338.77 337.116 339.832L339.079 341.795ZM340 342.665L341.963 344.628C342.493 344.098 342.786 343.376 342.776 342.626C342.765 341.876 342.451 341.162 341.906 340.647L340 342.665ZM244.176 470.742L242.215 468.776C241.13 469.859 241.128 471.617 242.21 472.702L244.176 470.742ZM322.505 392.604L324.47 390.644C323.387 389.558 321.63 389.556 320.544 390.639L322.505 392.604ZM245.079 471.647L243.114 473.608C243.634 474.129 244.34 474.422 245.076 474.423C245.812 474.424 246.519 474.133 247.04 473.613L245.079 471.647ZM323.408 393.51L325.369 395.475C325.89 394.955 326.183 394.249 326.184 393.513C326.185 392.777 325.893 392.07 325.373 391.549L323.408 393.51ZM-7.50658 286.046L-9.46428 284.078C-9.98622 284.597 -10.2805 285.302 -10.2824 286.039C-10.2844 286.775 -9.99376 287.482 -9.47455 288.004L-7.50658 286.046ZM138.195 141.105L140.163 139.148C139.644 138.626 138.939 138.331 138.202 138.329C137.466 138.327 136.759 138.618 136.237 139.137L138.195 141.105ZM-6.60431 286.953L-8.57228 288.911C-7.49107 289.998 -5.73349 290.002 -4.64661 288.921L-6.60431 286.953ZM139.097 142.012L141.055 143.98C142.142 142.899 142.146 141.141 141.065 140.055L139.097 142.012ZM4.70645 242.159L2.7436 244.122C3.26427 244.643 3.97049 244.935 4.70684 244.935C5.44319 244.935 6.14933 244.642 6.66986 244.122L4.70645 242.159ZM3.78531 241.238L1.82303 239.275C1.3022 239.795 1.00953 240.501 1.00943 241.238C1.00932 241.974 1.30178 242.68 1.82246 243.201L3.78531 241.238ZM94.1078 152.707L96.0712 154.669C97.1547 153.585 97.1545 151.828 96.0707 150.744L94.1078 152.707ZM93.2378 151.837L95.2007 149.874C94.1169 148.79 92.3597 148.79 91.2756 149.873L93.2378 151.837ZM-10.1729 323.964L-11.0941 323.094L-14.906 327.13L-13.9849 328L-10.1729 323.964ZM176.019 133.958L-14.0417 324.019L-10.116 327.945L179.945 137.884L176.019 133.958ZM175.094 136.906L175.964 137.827L180 134.015L179.13 133.094L175.094 136.906ZM-11.0372 327.075L179.075 136.963L175.149 133.037L-14.9629 323.149L-11.0372 327.075ZM-9.43594 355.016L-8.51481 355.937L-4.58914 352.011L-5.51027 351.09L-9.43594 355.016ZM203.142 138.564L-9.43572 351.09L-5.5105 355.016L207.067 142.49L203.142 138.564ZM207.993 139.542L207.123 138.621L203.087 142.433L203.956 143.354L207.993 139.542ZM-4.58913 355.937L207.937 143.411L204.012 139.485L-8.51482 352.012L-4.58913 355.937ZM6.5668 374.375L5.64566 373.454L1.71996 377.379L2.6411 378.301L6.5668 374.375ZM226.477 150.539L2.6411 374.375L6.5668 378.301L230.403 154.465L226.477 150.539ZM225.613 153.65L226.534 154.52L230.346 150.484L229.425 149.614L225.613 153.65ZM5.64543 377.38L229.482 153.595L225.556 149.669L1.72019 373.453L5.64543 377.38ZM12.7694 399.788L13.6394 400.709L17.6756 396.897L16.8057 395.976L12.7694 399.788ZM249.045 159.699L12.8247 395.919L16.7504 399.845L252.971 163.625L249.045 159.699ZM253.835 160.514L252.914 159.644L249.102 163.68L250.023 164.55L253.835 160.514ZM17.6204 400.766L253.892 164.494L249.966 160.569L13.6947 396.84L17.6204 400.766ZM26.2728 421.819L25.4028 420.898L21.3666 424.71L22.2366 425.631L26.2728 421.819ZM268.133 175.921L22.2918 421.762L26.2175 425.688L272.059 179.847L268.133 175.921ZM267.208 178.869L268.078 179.79L272.114 175.978L271.244 175.057L267.208 178.869ZM25.3476 424.767L271.189 178.926L267.263 175L21.4219 420.841L25.3476 424.767ZM42.0775 441.852L288.223 196.308L284.302 192.377L38.1566 437.922L42.0775 441.852ZM42.9858 438.833L42.0823 437.927L38.1517 441.848L39.0553 442.753L42.9858 438.833ZM285.206 193.283L39.0601 438.828L42.981 442.758L289.126 197.214L285.206 193.283ZM284.297 196.303L285.201 197.209L289.131 193.288L288.228 192.382L284.297 196.303ZM300.475 208.609L55.5325 455.354L59.4726 459.265L304.415 212.521L300.475 208.609ZM305.309 209.496L304.401 208.595L300.489 212.535L301.397 213.436L305.309 209.496ZM60.3805 460.167L305.323 213.422L301.383 209.511L56.4405 456.255L60.3805 460.167ZM55.5469 459.28L56.4548 460.181L60.3662 456.241L59.4582 455.34L55.5469 459.28ZM79.8078 466.827L80.6778 467.748L84.714 463.936L83.844 463.015L79.8078 466.827ZM316.083 226.738L79.8631 462.958L83.7888 466.884L320.009 230.663L316.083 226.738ZM320.93 227.659L320.009 226.738L316.083 230.663L317.004 231.584L320.93 227.659ZM84.6585 467.805L320.93 231.585L317.005 227.658L80.7333 463.879L84.6585 467.805ZM107.067 474.877L106.146 474.007L102.334 478.043L103.255 478.913L107.067 474.877ZM327.034 251.096L103.198 474.932L107.124 478.858L330.96 255.022L327.034 251.096ZM326.17 254.207L327.091 255.077L330.903 251.041L329.982 250.171L326.17 254.207ZM106.203 477.988L330.039 254.152L326.113 250.226L102.277 474.062L106.203 477.988ZM134.223 483.489L335.524 282.188L331.598 278.263L130.297 479.563L134.223 483.489ZM135.128 480.468L134.223 479.563L130.297 483.489L131.202 484.394L135.128 480.468ZM332.503 279.167L131.202 480.468L135.128 484.394L336.428 283.093L332.503 279.167ZM331.598 282.188L332.503 283.093L336.428 279.167L335.524 278.263L331.598 282.188ZM163.057 486.037L162.187 485.167L158.262 489.093L159.132 489.963L163.057 486.037ZM338.037 307.183L159.132 486.037L163.057 489.963L341.962 311.109L338.037 307.183ZM337.112 310.131L337.982 311.052L342.018 307.24L341.148 306.319L337.112 310.131ZM162.187 489.093L341.092 310.188L337.167 306.262L158.262 485.167L162.187 489.093ZM191.781 489.042L192.702 489.963L196.628 486.037L195.707 485.116L191.781 489.042ZM337.116 339.832L191.782 485.116L195.706 489.042L341.041 343.759L337.116 339.832ZM341.906 340.647L340.985 339.777L337.173 343.813L338.094 344.683L341.906 340.647ZM196.628 489.963L341.963 344.628L338.037 340.703L192.702 486.037L196.628 489.963ZM246.136 472.707L324.465 394.569L320.544 390.639L242.215 468.776L246.136 472.707ZM247.045 469.687L246.141 468.781L242.21 472.702L243.114 473.608L247.045 469.687ZM321.448 391.544L243.119 469.682L247.04 473.613L325.369 395.475L321.448 391.544ZM320.539 394.564L321.443 395.47L325.373 391.549L324.47 390.644L320.539 394.564ZM-5.54888 288.014L140.153 143.073L136.237 139.137L-9.46428 284.078L-5.54888 288.014ZM-4.63634 284.995L-5.53861 284.088L-9.47455 288.004L-8.57228 288.911L-4.63634 284.995ZM137.14 140.044L-8.56201 284.985L-4.64661 288.921L141.055 143.98L137.14 140.044ZM136.227 143.063L137.129 143.97L141.065 140.055L140.163 139.148L136.227 143.063ZM6.6693 240.196L5.74816 239.275L1.82246 243.201L2.7436 244.122L6.6693 240.196ZM92.1444 150.744L2.74304 240.197L6.66986 244.122L96.0712 154.669L92.1444 150.744ZM91.275 153.8L92.145 154.67L96.0707 150.744L95.2007 149.874L91.275 153.8ZM5.74759 243.201L95.2001 153.8L91.2756 149.873L1.82303 239.275L5.74759 243.201Z" fill="url(#paint0_linear_555_157)" fill-opacity="0.3"/>
<path d="M286 110L350.952 222.5H221.048L286 110Z" fill="url(#paint1_linear_555_157)" fill-opacity="0.3"/>
<circle cx="336" cy="135" r="50" fill="url(#paint2_linear_555_157)" fill-opacity="0.3"/>
<rect x="336" y="132" width="100" height="100" transform="rotate(-180 336 132)" fill="url(#paint3_linear_555_157)" fill-opacity="0.3"/>
<defs>
<linearGradient id="paint0_linear_555_157" x1="24" y1="445" x2="288" y2="181" gradientUnits="userSpaceOnUse">
<stop stop-color="#888888" stop-opacity="0"/>
<stop offset="1" stop-color="#888888"/>
</linearGradient>
<linearGradient id="paint1_linear_555_157" x1="286" y1="110" x2="286" y2="260" gradientUnits="userSpaceOnUse">
<stop stop-color="#888888" stop-opacity="0"/>
<stop offset="0.395833" stop-color="#888888"/>
</linearGradient>
<linearGradient id="paint2_linear_555_157" x1="286" y1="125" x2="386" y2="125" gradientUnits="userSpaceOnUse">
<stop stop-color="#888888" stop-opacity="0"/>
<stop offset="1" stop-color="#888888"/>
</linearGradient>
<linearGradient id="paint3_linear_555_157" x1="386" y1="132" x2="386" y2="232" gradientUnits="userSpaceOnUse">
<stop stop-color="#888888" stop-opacity="0"/>
<stop offset="1" stop-color="#888888"/>
</linearGradient>
</defs>
</svg>
