<svg width="32" height="32" viewBox="0 0 32 32" fill="none" xmlns="http://www.w3.org/2000/svg">
<g clip-path="url(#clip0_337_40)">
<path d="M0 0L-1.60574e-07 32L32 32L32 1.60574e-07L0 0ZM13.5961 22.9704L10.6375 16.8731L7.78294 22.9559L5.00081 22.9559L9.09506 15.156L5.1365 7.26875L8.02413 7.26875L10.8267 13.2642L13.6059 7.25419L16.3165 7.25419L12.3547 14.9086L16.5504 22.9704L13.5961 22.9704L13.5961 22.9704ZM26.2811 22.3301C25.0587 22.9123 23.7781 23.1742 22.5557 23.1742C19.3979 23.1887 17.1424 21.2388 17.1424 17.2806C17.2451 13.2258 19.9469 10.9632 23.7344 11.2706L23.7344 7.26875L26.3247 7.26875L26.3247 20.744C26.3301 22.3511 26.5074 22.1965 26.2811 22.3301ZM23.7344 13.5553L23.7344 20.7585C21.1777 21.4219 19.7641 19.866 19.7763 17.1641C19.7859 14.3933 21.6064 12.9552 23.7344 13.5553Z" fill="white"/>
</g>
<defs>
<clipPath id="clip0_337_40">
<rect width="32" height="32" rx="5" fill="white"/>
</clipPath>
</defs>
</svg>
