<svg width="64" height="64" viewBox="0 0 64 64" fill="none" xmlns="http://www.w3.org/2000/svg">
<g clip-path="url(#clip0_350_1244)">
<path d="M0 0L-3.21147e-07 64L64 64L64 3.21147e-07L0 0ZM27.1922 45.9409L21.275 33.7463L15.5659 45.9118L10.0016 45.9118L18.1901 30.312L10.273 14.5375L16.0483 14.5375L21.6535 26.5284L27.2117 14.5084L32.633 14.5084L24.7094 29.8171L33.1009 45.9409L27.1921 45.9409L27.1922 45.9409ZM52.5621 44.6603C50.1174 45.8245 47.5561 46.3484 45.1114 46.3484C38.7959 46.3775 34.2848 42.4775 34.2848 34.5611C34.4903 26.4516 39.8937 21.9265 47.4689 22.5411L47.4689 14.5375L52.6494 14.5375L52.6494 41.488C52.6601 44.7021 53.0149 44.393 52.5621 44.6603ZM47.4687 27.1105L47.4687 41.517C42.3554 42.8439 39.5281 39.732 39.5525 34.3283C39.5718 28.7865 43.2127 25.9104 47.4687 27.1105Z" fill="#888888"/>
</g>
<defs>
<clipPath id="clip0_350_1244">
<rect width="64" height="64" rx="5" fill="white"/>
</clipPath>
</defs>
</svg>
